<?xml version="1.0" standalone="no"?><!DOCTYPE svg PUBLIC "-//W3C//DTD SVG 1.1//EN" "http://www.w3.org/Graphics/SVG/1.1/DTD/svg11.dtd"><svg t="1507047676911" class="icon" style="" viewBox="0 0 1024 1024" version="1.1" xmlns="http://www.w3.org/2000/svg" p-id="1446" xmlns:xlink="http://www.w3.org/1999/xlink" width="200" height="200"><defs><style type="text/css"></style></defs><path d="M732.7592296296298 343.9122962962963c-26.457125925925922-25.48622222222222-39.928414814814815-29.248474074074075-43.9333925925926-27.792118518518517-4.0049777777777775 1.3349925925925925-3.640888888888889 13.714014814814815-3.640888888888889 13.714014814814815-4.975881481481481 156.07277037037034-91.62903703703704 179.2530962962963-91.62903703703704 179.2530962962963 58.37558518518518-256.68266666666665-113.71709629629629-373.55519999999996-130.82927407407408-383.6283259259259-17.112177777777777-10.073125925925925-27.1853037037037-15.049007407407405-39.56432592592593-15.049007407407405-12.379022222222222 0-14.806281481481479 30.219377777777776-14.806281481481479 30.219377777777776-6.068148148148147 159.10684444444445-50.00154074074075 183.379437037037-140.90239999999997 257.28948148148146C178.25185185185188 470.1297777777778 178.25185185185188 584.4536888888889 178.25185185185188 584.4536888888889c0 243.69682962962966 207.40930370370373 305.59194074074077 221.00195555555553 304.4996740740741 13.59265185185185-0.9709037037037037 6.068148148148147-18.083081481481482 6.068148148148147-18.083081481481482-51.821985185185184-161.04865185185184 3.0340740740740735-234.10915555555553 3.0340740740740735-234.10915555555553 21.117155555555552 145.02874074074074 129.85837037037035 240.66275555555558 129.85837037037035 240.66275555555558 32.768 35.19525925925926 57.890133333333324 21.117155555555552 57.890133333333324 21.117155555555552 16.626725925925925-6.553600000000001 187.74850370370368-52.914251851851844 231.0750814814815-230.58962962962963 43.205214814814816-177.55401481481482-67.8418962962963-298.55288888888884-94.42038518518517-324.03911111111114zM600.594962962963 849.7531259259258s-22.816237037037038 9.223585185185184-36.40888888888889-4.8545185185185185-70.26915555555554-71.11869629629629-100.97398518518519-170.87905185185184c-20.874429629629624-67.8418962962963-36.28752592592592-159.59229629629624-35.68071111111111-165.05362962962963 0 0-32.768 60.43875555555555-58.86103703703703 105.22168888888889-26.214400000000005 44.78293333333333-36.40888888888889 131.55745185185185-24.63668148148148 194.78755555555554 0 0-109.71211851851852-65.41463703703704-116.75117037037036-186.77759999999998-7.039051851851852-121.36296296296297 54.3706074074074-178.64628148148145 107.16349629629629-226.46328888888885 52.79288888888889-47.8170074074074 100.73125925925926-85.5608888888889 113.23164444444443-210.92882962962963 0 0-0.9709037037037037-9.587674074074075 7.039051851851852-11.044029629629629 8.009955555555555-1.4563555555555552 102.79442962962962 108.86257777777777 106.19259259259258 205.34613333333334 3.2768000000000006 91.99312592592591-11.16539259259259 149.0337185185185-36.772977777777776 225.977837037037 0 0 96.6049185185185-45.268385185185174 137.86832592592592-90.65813333333334s56.919229629629626-118.81434074074075 56.919229629629626-118.81434074074075 71.48278518518518 83.01226666666668 71.48278518518518 203.88977777777777S693.1949037037036 825.6018962962962 600.594962962963 849.7531259259258z m0 0" fill="#f44e4e" p-id="1447"></path><path d="M456.4157629629629 302.16343703703706s-18.811259259259256 136.77605925925928-170.51496296296295 237.99277037037038c0-0.12136296296296296 143.8151111111111-176.58311111111107 170.51496296296295-237.99277037037038z m0 0" fill="#f44e4e" p-id="1448"></path></svg>