<?xml version="1.0" standalone="no"?><!DOCTYPE svg PUBLIC "-//W3C//DTD SVG 1.1//EN" "http://www.w3.org/Graphics/SVG/1.1/DTD/svg11.dtd"><svg t="1507184443941" class="icon" style="" viewBox="0 0 1024 1024" version="1.1" xmlns="http://www.w3.org/2000/svg" p-id="9476" xmlns:xlink="http://www.w3.org/1999/xlink" width="200" height="200"><defs><style type="text/css"></style></defs><path d="M91.073198 309.421676L201.671782 419.920261 91.073198 530.518845v-221.097169zM254.271109 419.720264L91.073198 582.918175v360.09539h860.388987V419.720264H254.271109z m516.493389 352.195492H292.870615v-55.299293h477.893883v55.299293z m0-126.998375H292.870615v-55.299292h477.893883v55.299292z m167.99785-381.795113l-33.399573-182.097669-832.78934 152.798044 158.997965 158.997965 707.190948-129.69834z m-91.498829-137.698237l47.59939 82.198948 5.299933 28.89963-101.5987 18.69976-63.29919-109.198602 111.998567-20.599736z m-228.797072 41.999462l63.29919 109.098604-111.998566 20.499737-63.29919-109.098603 111.998566-20.499738zM389.569377 209.322957l63.29919 109.198602-111.998566 20.499738-63.29919-109.098604 111.998566-20.599736z" fill="#ffffff" p-id="9477"></path></svg>