<?xml version="1.0" standalone="no"?><!DOCTYPE svg PUBLIC "-//W3C//DTD SVG 1.1//EN" "http://www.w3.org/Graphics/SVG/1.1/DTD/svg11.dtd"><svg t="1507183386246" class="icon" style="" viewBox="0 0 1664 1024" version="1.1" xmlns="http://www.w3.org/2000/svg" p-id="3517" xmlns:xlink="http://www.w3.org/1999/xlink" width="325" height="200"><defs><style type="text/css"></style></defs><path d="M42.66688 128.128v767.744A85.226667 85.226667 0 0 0 127.808213 981.333333h1408.384A85.333333 85.333333 0 0 0 1621.333547 895.872V128.128A85.226667 85.226667 0 0 0 1536.192213 42.666667H127.808213A85.333333 85.333333 0 0 0 42.66688 128.128z m-42.666667 0C0.000213 57.386667 57.280213 0 127.808213 0h1408.384A127.893333 127.893333 0 0 1 1664.000213 128.128v767.744C1664.000213 966.613333 1606.720213 1024 1536.192213 1024H127.808213A127.893333 127.893333 0 0 1 0.000213 895.872V128.128z m776.170667 199.637333c-28.586667-20.8-51.328-8.896-50.837333 26.154667l4.586666 321.002667c0.512 35.242667 23.850667 46.4 51.925334 25.088l196.629333-149.269334c28.16-21.376 27.818667-55.573333-0.746667-76.373333l-201.557333-146.602667z" fill="#ffffff" p-id="3518"></path></svg>